<svg width="492" height="321" viewBox="0 0 492 321" version="1.1" xmlns="http://www.w3.org/2000/svg" xmlns:xlink="http://www.w3.org/1999/xlink">
<title>Group</title>
<desc>Created using Figma</desc>
<g id="Canvas" transform="translate(231 603)">
<g id="Group">
<g id="Rectangle 2" filter="url(#filter0_dd)">
<use xlink:href="#path0_fill" transform="translate(-225 -597)" fill="#019645"/>
</g>
<g id="Rectangle 2">
<use xlink:href="#path1_fill" transform="translate(-225 -535)" fill="#FFF500"/>
</g>
<g id="Rectangle 2">
<use xlink:href="#path2_fill" transform="translate(-225 -597)" fill="#FFF500"/>
</g>
<g id="Group">
<g id="Vector">
<use xlink:href="#path3_fill" transform="translate(-190 -545.978)" fill="#FF3232"/>
<mask id="mask0_outline_out">
<rect id="mask0_outline_inv" fill="white" x="-14" y="-13" width="136" height="142" transform="translate(-190 -545.978)"/>
<use xlink:href="#path3_fill" fill="black" transform="translate(-190 -545.978)"/>
</mask>
<g mask="url(#mask0_outline_out)">
<use xlink:href="#path4_stroke_2x" transform="translate(-190 -545.978)" fill="#FFFFFF"/>
</g>
</g>
<g id="Vector 2">
<use xlink:href="#path5_fill" transform="translate(-55.8576 -546)" fill="#019645"/>
<mask id="mask1_outline_out">
<rect id="mask1_outline_inv" fill="white" x="-13" y="-14" width="150" height="151" transform="translate(-55.8576 -546)"/>
<use xlink:href="#path5_fill" fill="black" transform="translate(-55.8576 -546)"/>
</mask>
<g mask="url(#mask1_outline_out)">
<use xlink:href="#path6_stroke_2x" transform="translate(-55.8576 -546)" fill="#FFFFFF"/>
</g>
</g>
<g id="Vector 3">
<use xlink:href="#path7_fill" transform="translate(96.0535 -545.978)" fill="#019645"/>
<mask id="mask2_outline_out">
<rect id="mask2_outline_inv" fill="white" x="-14" y="-14" width="160" height="143" transform="translate(96.0535 -545.978)"/>
<use xlink:href="#path7_fill" fill="black" transform="translate(96.0535 -545.978)"/>
</mask>
<g mask="url(#mask2_outline_out)">
<use xlink:href="#path8_stroke_2x" transform="translate(96.0535 -545.978)" fill="#FFFFFF"/>
</g>
</g>
</g>
<g id="&#208;&#161; &#208;&#189;&#208;&#176;&#208;&#188;&#208;&#184; &#208;&#178;&#208;&#186;&#209;&#131;&#209;&#129;&#208;&#189;&#208;&#190;!" filter="url(#filter1_d)">
<use xlink:href="#path9_fill" transform="translate(-213 -385)" fill="#FFFFFF"/>
</g>
</g>
</g>
<defs>
<filter id="filter0_dd" filterUnits="userSpaceOnUse" x="-231" y="-604" width="492" height="322" color-interpolation-filters="sRGB">
<feFlood flood-opacity="0" result="BackgroundImageFix"/>
<feColorMatrix in="SourceAlpha" type="matrix" values="0 0 0 0 0 0 0 0 0 0 0 0 0 0 0 0 0 0 255 0"/>
<feOffset dx="2" dy="2"/>
<feGaussianBlur stdDeviation="2"/>
<feColorMatrix type="matrix" values="0 0 0 0 0 0 0 0 0 0 0 0 0 0 0 0 0 0 0.25 0"/>
<feBlend mode="normal" in2="BackgroundImageFix" result="effect1_dropShadow"/>
<feColorMatrix in="SourceAlpha" type="matrix" values="0 0 0 0 0 0 0 0 0 0 0 0 0 0 0 0 0 0 255 0"/>
<feOffset dx="-2" dy="-2"/>
<feGaussianBlur stdDeviation="2"/>
<feColorMatrix type="matrix" values="0 0 0 0 0 0 0 0 0 0 0 0 0 0 0 0 0 0 0.25 0"/>
<feBlend mode="normal" in2="effect1_dropShadow" result="effect2_dropShadow"/>
<feBlend mode="normal" in="SourceGraphic" in2="effect2_dropShadow" result="shape"/>
</filter>
<filter id="filter1_d" filterUnits="userSpaceOnUse" x="-216" y="-373" width="463" height="73" color-interpolation-filters="sRGB">
<feFlood flood-opacity="0" result="BackgroundImageFix"/>
<feColorMatrix in="SourceAlpha" type="matrix" values="0 0 0 0 0 0 0 0 0 0 0 0 0 0 0 0 0 0 255 0"/>
<feOffset dx="0" dy="4"/>
<feGaussianBlur stdDeviation="2"/>
<feColorMatrix type="matrix" values="0 0 0 0 0 0 0 0 0 0 0 0 0 0 0 0 0 0 0.25 0"/>
<feBlend mode="normal" in2="BackgroundImageFix" result="effect1_dropShadow"/>
<feBlend mode="normal" in="SourceGraphic" in2="effect1_dropShadow" result="shape"/>
</filter>
<path id="path0_fill" d="M 0 43C 0 19.2518 19.2518 0 43 0L 437 0C 460.748 0 480 19.2518 480 43L 480 266C 480 289.748 460.748 309 437 309L 43 309C 19.2518 309 0 289.748 0 266L 0 43Z"/>
<path id="path1_fill" d="M 0 0L 480 0L 480 152L 0 152L 0 0Z"/>
<path id="path2_fill" d="M 0 43C 0 19.2518 19.2518 0 43 0L 437 0C 460.748 0 480 19.2518 480 43L 480 138C 480 161.748 460.748 181 437 181L 43 181C 19.2518 181 0 161.748 0 138L 0 43Z"/>
<path id="path3_fill" d="M 6.19846 2.92839L 78.4521 2.92839C 83.862 2.60053 85.7344 0.0560053 90.7681 0C 103.534 3.30915 102.861 34.7351 94.4629 33.049C 86.0644 31.3628 83.1428 22.5865 73.9363 18.8254C 64.7298 15.0642 53.7797 16.3153 48.4833 20.4987C 43.1869 24.6821 41.9553 43.9258 46.8412 48.5276C 51.7271 53.1294 60.0353 53.823 62.0308 48.5276C 62.9895 45.8001 63.7978 31.8973 71.4731 32.2123C 77.4351 32.4742 78.037 37.2411 78.4521 43.9258C 79.2544 54.8586 79.2361 60.7099 78.4521 70.6997C 76.8002 78.8698 74.6173 79.8831 70.2415 80.3215C 63.909 81.0735 63.222 68.608 60.7992 65.2613C 58.3765 61.9145 52.1376 61.4962 48.0728 65.2613C 44.0079 69.0263 43.5974 91.1984 50.1254 95.8002C 56.6534 100.402 72.6608 99.3587 78.4521 97.4735C 86.0641 95.584 89.3838 90.7152 94.4629 78.6482C 98.3056 73.2519 104.861 74.8398 107.189 78.6482C 111.748 83.8027 103.874 113.358 94.4629 115.044C 86.1311 113.025 48.5297 113.389 5.3774 112.952C -1.10053 111.546 -1.04635 103.629 5.3774 101.239C 8.02206 99.9749 9.26561 99.0387 10.7142 96.6369C 12.3651 96.625 12.1215 64.846 12.3564 26.3555C 12.2789 23.0213 9.23228 19.7815 6.07457 17.9887C 2.39976 17.4287 -0.370134 13.3869 0.0404114 10.0402C 0.450957 6.69346 2.91415 2.92839 6.19846 2.92839Z"/>
<path id="path4_stroke_2x" d="M 6.19846 9.42839C 7.84062 9.42839 25.904 9.42839 43.5569 9.42839C 52.3834 9.42839 61.1072 9.42839 67.6243 9.42839C 70.8829 9.42839 73.5899 9.42839 75.4822 9.42839C 76.4283 9.42839 77.1708 9.42839 77.6768 9.42839C 77.9297 9.42839 78.1236 9.42839 78.2542 9.42839C 78.3195 9.42839 78.369 9.42839 78.4021 9.42839C 78.4187 9.42839 78.4312 9.42839 78.4396 9.42839C 78.4437 9.42839 78.4469 9.42839 78.449 9.42839C 78.45 9.42839 78.4508 9.42839 78.4513 9.42839C 78.4519 9.42839 78.4521 9.42839 78.4521 2.92839C 78.4521 -3.57161 78.4519 -3.57161 78.4513 -3.57161C 78.4508 -3.57161 78.45 -3.57161 78.449 -3.57161C 78.4469 -3.57161 78.4437 -3.57161 78.4396 -3.57161C 78.4312 -3.57161 78.4187 -3.57161 78.4021 -3.57161C 78.369 -3.57161 78.3195 -3.57161 78.2542 -3.57161C 78.1236 -3.57161 77.9297 -3.57161 77.6768 -3.57161C 77.1708 -3.57161 76.4283 -3.57161 75.4822 -3.57161C 73.5899 -3.57161 70.8829 -3.57161 67.6243 -3.57161C 61.1072 -3.57161 52.3834 -3.57161 43.5569 -3.57161C 25.904 -3.57161 7.84062 -3.57161 6.19846 -3.57161L 6.19846 9.42839ZM 78.4521 2.92839L 78.4521 15.9284C 78.7144 15.9284 78.9767 15.9205 79.2385 15.9046L 78.4521 2.92839ZM 90.7681 0L 94.0302 -12.5841C 92.9179 -12.8724 91.7724 -13.012 90.6235 -12.9992L 90.7681 0ZM 62.0308 48.5276L 74.1958 53.1118C 74.2299 53.021 74.2631 52.9299 74.2953 52.8384L 62.0308 48.5276ZM 71.4731 32.2123L 72.0437 19.2248C 72.0312 19.2243 72.0187 19.2237 72.0062 19.2232L 71.4731 32.2123ZM 78.4521 43.9258L 65.4771 44.7316C 65.4801 44.7801 65.4834 44.8287 65.487 44.8773L 78.4521 43.9258ZM 78.4521 70.6997L 91.1943 73.2761C 91.2984 72.7612 91.3712 72.2404 91.4123 71.7167L 78.4521 70.6997ZM 70.2415 80.3215L 68.9455 67.3863C 68.8664 67.3942 68.7874 67.4029 68.7085 67.4122L 70.2415 80.3215ZM 60.7992 65.2613L 71.3297 57.6383L 60.7992 65.2613ZM 48.0728 65.2613L 56.9067 74.7986L 48.0728 65.2613ZM 78.4521 97.4735L 75.3202 84.8565C 75.0199 84.931 74.7224 85.0162 74.4282 85.112L 78.4521 97.4735ZM 94.4629 78.6482L 83.8734 71.1074C 83.3189 71.8862 82.8519 72.7237 82.481 73.6049L 94.4629 78.6482ZM 107.189 78.6482L 96.0979 85.4291C 96.4946 86.078 96.9475 86.6908 97.4514 87.2605L 107.189 78.6482ZM 94.4629 115.044L 91.4015 127.678C 93.1557 128.103 94.9792 128.158 96.7559 127.84L 94.4629 115.044ZM 5.3774 112.952L 2.61927 125.656C 3.48247 125.844 4.36251 125.943 5.24577 125.952L 5.3774 112.952ZM 5.3774 101.239L 9.91052 113.423C 10.2744 113.287 10.6321 113.136 10.9824 112.968L 5.3774 101.239ZM 10.7142 96.6369L 10.6207 83.6372C 6.09835 83.6697 1.91784 86.0502 -0.417848 89.9229L 10.7142 96.6369ZM 12.3564 26.3555L 25.3562 26.4349C 25.357 26.3076 25.3559 26.1803 25.3529 26.053L 12.3564 26.3555ZM 6.07457 17.9887L 12.493 6.68366C 11.1131 5.90023 9.60149 5.37604 8.03284 5.13702L 6.07457 17.9887ZM 79.2385 15.9046C 83.9701 15.4565 87.7019 14.1576 89.4297 13.4912C 91.1546 12.8257 90.6506 12.8047 90.9127 12.9992L 90.6235 -12.9992C 85.8519 -12.7487 81.8948 -11.4695 80.0726 -10.7667C 78.2533 -10.0648 78.344 -9.92753 77.6657 -10.0478L 79.2385 15.9046ZM 87.506 12.5841C 85.4902 12.0615 85.4201 10.7906 86.1598 12.3548C 86.8385 13.7899 87.4342 16.1889 87.5662 19.0065C 87.7027 21.9161 87.2844 23.8816 87.0651 24.4612C 86.9358 24.803 87.2328 23.7423 88.6312 22.5068C 90.4714 20.8808 93.5768 19.6117 97.0218 20.3033L 91.9039 45.7946C 104.443 48.3122 110.053 37.1774 111.383 33.6623C 113.252 28.7204 113.779 22.9387 113.538 17.789C 113.264 12.765 111.848 6.07961 109.664 1.23934C 107.202 -3.96685 102.429 -10.4069 94.0302 -12.5841L 87.506 12.5841ZM 97.0218 20.3033C 96.5475 20.3192 97.2215 20.5719 96.46 19.9925C 95.6426 19.4657 95.0044 18.8069 93.6058 17.4346C 90.7958 14.6799 85.8252 9.93939 78.8527 6.79089L 69.0198 30.8598C 71.2538 31.4725 72.3473 33.0007 75.3994 35.996C 78.2072 38.7502 83.5033 44.108 91.9039 45.7946L 97.0218 20.3033ZM 78.8527 6.79089C 66.4822 1.73715 50.2983 2.49905 40.4255 10.2971L 56.5411 30.7003C 56.5383 30.7025 57.8456 29.8772 60.7845 29.6411C 63.5001 29.4229 66.4765 29.8208 69.0198 30.8598L 78.8527 6.79089ZM 40.4255 10.2971C 35.9863 13.8035 33.9287 18.8745 32.9169 22.0551C 31.8872 25.3977 31.1081 29.9206 30.8678 33.5675C 30.6646 37.2195 30.8952 41.8252 31.5302 45.274C 32.1664 48.5489 33.6641 53.975 37.9281 57.991L 55.7542 39.0642C 56.8242 40.0719 57.192 40.9405 57.2147 40.9926C 57.3317 41.1953 57.1728 41.0014 57.0531 40.316C 56.818 39.1054 56.6909 37.2673 56.8199 35.1451C 56.9486 33.0286 57.2986 31.178 57.6935 29.9369C 57.9031 29.2376 58.1594 28.896 57.9974 29.1326C 57.9784 29.1662 57.879 29.3377 57.6727 29.5945C 57.4683 29.8489 57.1034 30.2561 56.5411 30.7003L 40.4255 10.2971ZM 37.9281 57.991C 42.6119 62.4025 48.9187 65.0498 55.1363 65.2334C 61.3691 65.4174 70.5484 62.7907 74.1958 53.1118L 49.8659 43.9434C 50.5367 42.1635 51.8785 40.7442 53.3698 39.9463C 54.6714 39.2499 55.6554 39.2374 55.9035 39.2447C 56.2466 39.2548 55.9563 39.2545 55.7542 39.0642L 37.9281 57.991ZM 74.2953 52.8384C 74.7591 51.519 75.0304 50.1475 75.1418 49.594C 75.2924 48.8426 75.438 48.0485 75.5874 47.2899C 75.8924 45.7341 76.1201 44.5906 76.5442 43.4051C 76.9486 42.2131 77.1033 42.3343 76.5627 42.9357C 76.2141 43.3235 75.521 43.9665 74.4178 44.4833C 73.2556 45.0278 72.0298 45.2461 70.94 45.2014L 72.0062 19.2232C 65.4956 18.956 60.4622 21.9547 57.2264 25.5545C 54.9042 28.341 52.8252 32.459 51.9223 35.0529C 51.0651 37.6447 50.4312 40.4686 50.0752 42.2768C 49.5331 45.0359 49.5924 44.7118 49.7664 44.2168L 74.2953 52.8384ZM 70.9025 45.1998C 70.673 45.1897 69.4176 45.0799 67.9159 44.0999C 66.36 43.0846 65.5585 41.8023 65.2323 41.0933C 64.9806 40.5461 65.0464 40.4226 65.1678 41.2345C 65.2848 42.0166 65.374 43.0718 65.4771 44.7316L 91.4271 43.1201C 91.2555 40.3557 91.0033 34.9021 88.8531 30.2278C 87.6728 27.8701 84.7179 24.2289 82.125 22.3261C 79.5972 20.8354 75.1353 19.4605 72.0437 19.2248L 70.9025 45.1998ZM 65.487 44.8773C 66.2624 55.3143 66.2468 60.1806 65.492 69.6826L 91.4123 71.7167C 92.2253 61.2392 92.2464 54.4029 91.4173 42.9744L 65.487 44.8773ZM 65.71 68.1233C 65.3815 69.7477 65.1266 70.4897 65.0342 70.7185C 64.9556 70.9129 65.2008 70.2141 66.0709 69.3238C 66.5126 68.8719 67.0282 68.4606 67.5935 68.1183C 68.1486 67.7822 68.6427 67.5784 68.996 67.4596C 69.5747 67.2651 69.7987 67.3008 68.9455 67.3863L 71.5375 93.2568C 74.1018 92.9999 79.911 92.3613 84.6656 87.4962C 88.7867 83.2793 90.3029 77.6845 91.1943 73.2761L 65.71 68.1233ZM 68.7085 67.4122C 70.1357 67.2428 71.7674 67.435 73.3276 68.1175C 74.7927 68.7585 75.7009 69.6132 76.1452 70.1123C 76.8252 70.8761 76.7458 71.1742 76.2544 69.8388C 75.7969 68.6282 75.3858 67.1046 74.8243 65.2861C 74.5363 64.3582 74.1198 63.1135 73.7164 62.0855C 73.298 61.0362 72.5546 59.3303 71.3297 57.6383L 50.2688 72.8843C 49.3997 71.6837 49.3553 70.9347 49.9881 72.978C 50.4346 74.4146 51.0453 76.5879 51.8541 78.818C 52.6288 80.9233 54.0599 84.406 56.7254 87.4002C 59.8656 90.9276 65.0516 94.0292 71.7744 93.2309L 68.7085 67.4122ZM 71.3297 57.6383C 67.1403 51.851 60.6473 49.7146 55.3385 49.5975C 49.8038 49.4754 43.8971 51.4091 39.2388 55.7239L 56.9067 74.7986C 56.3133 75.3483 55.5584 75.6087 54.7651 75.5912C 54.1976 75.5787 52.0355 75.3248 50.2688 72.8843L 71.3297 57.6383ZM 39.2388 55.7239C 36.6735 58.1 35.3389 60.9181 34.6443 62.6669C 34.0053 64.3318 33.3461 66.7177 32.9881 68.5527C 32.3598 71.9874 32.0266 76.6715 32.1331 80.6218C 32.2715 84.5568 32.9418 89.5097 34.0037 93.2724C 35.0605 96.8788 37.3245 102.682 42.6353 106.426L 57.6155 85.1748C 58.7948 86.0061 59.2477 86.8091 59.2682 86.8449C 59.4462 87.09 59.1734 86.7609 58.9544 85.9607C 58.5331 84.5228 58.1996 82.3541 58.1205 79.8122C 58.0217 77.1736 58.1452 75.321 58.5331 73.3958C 58.6833 72.5508 58.944 71.9782 58.808 72.2645C 58.7996 72.2858 58.7021 72.5325 58.4684 72.9176C 58.2478 73.2812 57.7631 74.0054 56.9067 74.7986L 39.2388 55.7239ZM 42.6353 106.426C 49.3762 111.177 58.5617 111.985 64.3802 112.068C 70.7669 112.159 77.7603 111.37 82.4761 109.835L 74.4282 85.112C 73.3526 85.4621 69.4466 86.1376 64.7498 86.0708C 62.4481 86.0465 60.8834 85.9251 59.1285 85.5385C 57.5031 85.2342 57.4802 84.935 57.6155 85.1748L 42.6353 106.426ZM 81.5841 110.091C 87.3028 108.51 93.564 104.612 97.4803 100.095C 101.197 95.5399 103.902 89.7335 106.445 83.6915L 82.481 73.6049C 79.945 79.6299 78.4504 82.2915 77.3343 83.6595C 76.7806 84.3382 76.5319 84.5557 75.3202 84.8565L 81.5841 110.091ZM 105.052 86.189C 104.792 86.5542 104.199 87.1746 103.198 87.6371C 102.224 88.087 101.214 88.2256 100.327 88.1525C 98.8472 88.0307 97.2235 87.2702 96.0979 85.4291L 118.281 71.8673C 114.827 66.2178 108.761 62.7591 102.461 62.2403C 95.5234 61.6689 88.4776 64.6418 83.8734 71.1074L 105.052 86.189ZM 97.4514 87.2605C 96.4341 86.1103 95.9561 85.0498 95.7524 84.5149C 95.5409 83.9597 95.4915 83.6188 95.4913 83.6174C 95.3942 83.186 95.5737 84.183 95.4786 85.3732C 95.3195 88.0593 94.7584 90.8004 93.656 94.2705C 92.5843 97.759 91.5772 100.174 90.1353 102.328C 89.5344 103.295 88.956 103.702 89.2838 103.472C 89.3054 103.452 90.2622 102.59 92.1699 102.248L 96.7559 127.84C 104.796 126.399 109.658 120.031 111.99 116.413C 114.529 112.39 116.97 106.778 118.473 102.023C 119.946 97.249 121.087 91.5296 121.416 87.1717C 121.565 84.8399 121.491 81.8062 121.183 79.6282C 120.834 77.3782 119.928 73.4291 116.927 70.0359L 97.4514 87.2605ZM 97.5243 102.41C 94.0449 101.566 88.9019 101.189 83.7169 100.942C 78.1855 100.678 71.1342 100.515 63.1551 100.406C 47.2365 100.189 27.0252 100.171 5.50903 99.9528L 5.24577 125.952C 26.8819 126.17 47.0475 126.189 62.8006 126.404C 70.6574 126.511 77.2656 126.662 82.4762 126.912C 85.0441 127.034 87.0513 127.166 88.7653 127.332C 90.375 127.484 91.8385 127.799 91.4015 127.678L 97.5243 102.41ZM 8.13552 100.248C 9.0626 100.449 10.5305 101.089 11.7731 102.597C 12.9867 104.069 13.5438 105.846 13.5392 107.5C 13.5297 110.967 11.2891 112.91 9.91052 113.423L 0.844282 89.0546C -6.95809 91.9575 -12.4376 99.0541 -12.4607 107.428C -12.4851 116.282 -6.34306 123.71 2.61927 125.656L 8.13552 100.248ZM 10.9824 112.968C 14.7674 111.088 18.9172 107.748 21.8463 103.351L -0.417848 89.9229C -0.552469 90.1461 -0.560389 90.1317 -0.450214 89.996C -0.392888 89.9254 -0.311699 89.8319 -0.207326 89.7252C -0.102246 89.6178 0.00962767 89.514 0.123629 89.4181C 0.358513 89.2204 0.516223 89.1283 0.493897 89.1416C 0.477039 89.1516 0.416418 89.1867 0.294375 89.2504C 0.171344 89.3145 0.00350566 89.3986 -0.227624 89.509L 10.9824 112.968ZM 10.8077 109.637C 16.5873 109.595 19.9599 106.022 21.1242 104.526C 21.9022 103.425 22.8884 101.553 23.2087 100.741C 23.5574 99.7122 23.9355 98.1397 24.0847 97.2534C 24.2995 95.868 24.4911 93.8297 24.6113 91.8347C 24.8355 88.0319 24.9764 82.5588 25.0651 76.1038C 25.2408 63.2564 25.2389 45.6396 25.3562 26.4349L -0.643313 26.2762C -0.760964 45.5619 -0.758559 63.0798 -0.932468 75.7475C -1.01862 82.0501 -1.14108 86.9296 -1.34284 90.2916C -1.43561 91.8789 -1.49762 92.626 -1.58643 93.1311C -1.62623 93.379 -1.55372 92.7497 -1.20439 91.7963C -1.05458 91.3874 -0.547494 90.0397 0.602832 88.5611C 1.67115 87.1878 4.94435 83.678 10.6207 83.6372L 10.8077 109.637ZM 12.9437 11.623C 12.8682 12.2382 12.6885 12.7255 12.2296 13.3044C 11.8072 13.8373 9.85693 15.9284 6.19846 15.9284L 6.19846 -10.0716C -0.744318 -10.0716 -5.56837 -6.09799 -8.14609 -2.84585C -10.2712 0.04925 -12.3403 5.1123 -12.8629 8.45734L 12.9437 11.623ZM 25.3529 26.053C 25.2252 20.5638 22.7433 16.237 20.5035 13.4501C 18.4176 10.9716 14.9824 8.14793 12.493 6.68366L -0.343874 29.2937C -0.221939 29.3629 -0.0737736 29.4633 0.0640288 29.5779C 0.204477 29.6947 0.256724 29.7618 0.237636 29.738C 0.224975 29.7223 0.0486637 29.504 -0.1478 29.0492C -0.348816 28.5839 -0.614279 27.7647 -0.640036 26.658L 25.3529 26.053ZM 8.03284 5.13702C 10.3239 5.48612 11.5348 6.72625 12.0041 7.36541C 12.4273 7.94174 13.2235 9.34179 12.9437 11.623L -12.8629 8.45734C -13.5533 14.0853 -11.5773 19.1796 -8.95312 22.7536C -6.2828 26.3903 -1.84957 29.9313 4.11631 30.8403L 8.03284 5.13702ZM 6.19846 15.9284L 78.4521 15.9284L 78.4521 -10.0716L 6.19846 -10.0716L 6.19846 15.9284Z"/>
<path id="path5_fill" fill-rule="evenodd" d="M 57.3656 0.0226126C 65.225 -0.376108 72.0465 4.483 77.9574 15.7954C 88.635 34.4718 106.037 75.732 109.781 84.0127C 113.525 92.2935 121.762 91.1105 122.885 99.7856C 124.008 108.461 123.544 110.817 122.885 116.347C 121.696 122.885 119.232 122.954 115.023 123.445C 108.135 124.099 105.542 122.197 102.293 116.347C 98.4903 109.374 95.1339 107.181 86.5685 106.883C 86.5685 106.883 37.1482 106.489 30.7834 107.278C 24.4187 108.066 18.054 125.416 8.31964 123.445C -1.41474 121.473 0.0829183 109.249 0.0829183 109.249C 0.608152 98.9739 2.1279 94.6946 9.81723 93.0822C 14.3454 91.5704 14.967 88.6004 17.3052 83.6185C 19.6434 78.6366 36.025 46.9468 38.2714 33.1455C 40.5177 19.3442 39.1002 28.1776 40.5177 15.7954C 41.9353 3.41328 48.4394 1.19571 57.3656 0.0226126ZM 70.0952 79.2809C 68.972 77.0548 59.6119 57.199 57.3656 53.6501C 55.1193 50.1012 51.7497 49.7069 49.5033 53.6501C 47.257 57.5933 38.2714 79.2809 38.2714 79.2809C 36.3255 85.4293 36.6435 87.8836 40.5177 87.9559L 66.7256 87.9559C 72.0014 88.3498 71.2183 81.507 70.0952 79.2809Z"/>
<path id="path6_stroke_2x" d="M 57.3656 0.0226126L 56.7069 -12.9607L 56.1874 -12.9343L 55.6717 -12.8666L 57.3656 0.0226126ZM 77.9574 15.7954L 66.4354 21.8158L 66.5495 22.034L 66.6716 22.2477L 77.9574 15.7954ZM 122.885 116.347L 135.675 118.674L 135.746 118.282L 135.794 117.886L 122.885 116.347ZM 115.023 123.445L 116.251 136.387L 116.391 136.373L 116.53 136.357L 115.023 123.445ZM 102.293 116.347L 90.8801 122.571L 90.9042 122.615L 90.9285 122.659L 102.293 116.347ZM 86.5685 106.883L 87.0193 93.8912L 86.8458 93.8852L 86.6723 93.8838L 86.5685 106.883ZM 0.0829183 109.249L 12.9864 110.83L 13.0425 110.373L 13.066 109.913L 0.0829183 109.249ZM 9.81723 93.0822L 12.4852 105.805L 13.2209 105.651L 13.934 105.413L 9.81723 93.0822ZM 66.7256 87.9559L 67.6934 74.992L 67.2102 74.9559L 66.7256 74.9559L 66.7256 87.9559ZM 40.5177 87.9559L 40.2751 100.954L 40.3964 100.956L 40.5177 100.956L 40.5177 87.9559ZM 38.2714 79.2809L 26.2614 74.3049L 26.0466 74.8233L 25.8773 75.3583L 38.2714 79.2809ZM 58.0242 13.0059C 58.7895 12.9671 59.4824 13.0821 60.5748 13.9042C 61.9347 14.9278 64.0124 17.1785 66.4354 21.8158L 89.4793 9.77508C 82.5314 -3.5222 71.9655 -13.7348 56.7069 -12.9607L 58.0242 13.0059ZM 66.6716 22.2477C 76.982 40.2343 94.1243 80.9363 97.9356 89.3685L 121.627 78.657C 117.95 70.5277 100.288 28.7092 89.2431 9.34314L 66.6716 22.2477ZM 97.9356 89.3685C 101.559 97.382 107.897 101.06 109.979 102.483C 111.218 103.33 111.048 103.334 110.73 102.936C 110.628 102.954 110.121 101.246 109.993 101.455L 135.777 98.1164C 135.087 93.9879 132.925 89.2097 131.05 86.7152C 128.919 84.223 126.18 82.0662 124.653 81.0196C 121.633 78.9637 121.338 79.481 121.627 78.657L 97.9356 89.3685ZM 109.993 101.455C 110.504 105.346 110.613 107.11 110.557 108.927C 110.54 110.533 110.324 111.896 109.976 114.808L 135.794 117.886C 136.511 111.864 137.097 108.307 135.777 98.1164L 109.993 101.455ZM 110.095 114.02C 109.92 114.981 109.83 114.913 110.105 114.359C 110.466 113.633 111.262 112.464 112.674 111.483C 113.97 110.584 115.069 110.35 115.174 110.328C 115.337 110.275 114.66 110.399 113.515 110.533L 116.53 136.357C 117.213 136.277 122.899 136.036 127.498 132.843C 133.092 128.962 134.885 123.017 135.675 118.674L 110.095 114.02ZM 113.794 110.503C 113.259 110.554 112.888 110.568 112.647 110.568C 112.407 110.567 112.338 110.553 112.397 110.561C 112.464 110.571 112.662 110.604 112.947 110.7C 113.24 110.798 113.56 110.939 113.877 111.125C 114.193 111.31 114.432 111.497 114.593 111.641C 114.747 111.778 114.801 111.852 114.761 111.802C 114.717 111.748 114.599 111.596 114.403 111.293C 114.207 110.991 113.963 110.584 113.658 110.035L 90.9285 122.659C 92.7735 125.981 95.6348 130.564 100.709 133.544C 106.062 136.688 111.677 136.821 116.251 136.387L 113.794 110.503ZM 113.706 110.123C 111.399 105.893 108.263 101.237 102.994 98.0182C 97.7772 94.831 92.1304 94.0686 87.0193 93.8912L 86.1178 119.876C 89.572 119.995 89.8861 120.478 89.4394 120.205C 88.9412 119.901 89.384 119.828 90.8801 122.571L 113.706 110.123ZM 86.5685 106.883C 86.6723 93.8838 86.672 93.8838 86.6715 93.8838C 86.6711 93.8838 86.6704 93.8838 86.6696 93.8838C 86.668 93.8838 86.6655 93.8838 86.6624 93.8838C 86.6562 93.8837 86.6469 93.8836 86.6347 93.8835C 86.6106 93.8833 86.5742 93.8831 86.5267 93.8827C 86.4324 93.882 86.2914 93.8809 86.1084 93.8795C 85.7435 93.8768 85.2054 93.8729 84.5207 93.8683C 83.1538 93.859 81.1883 93.8466 78.8149 93.8343C 74.0735 93.8096 67.6632 93.7848 61.0628 93.7848C 48.5433 93.7848 33.4039 93.8535 29.1849 94.3763L 32.382 120.179C 32.031 120.23 33.6158 120.087 35.4366 120.027C 37.3133 119.965 39.6384 119.918 42.3588 119.882C 47.8237 119.809 54.511 119.785 61.0627 119.785C 67.6129 119.785 73.9555 119.809 78.6794 119.834C 81.0386 119.846 82.9837 119.858 84.3444 119.868C 85.0235 119.872 85.5533 119.876 85.9155 119.879C 86.096 119.88 86.2333 119.881 86.3264 119.882C 86.3726 119.882 86.4072 119.883 86.4307 119.883C 86.4423 119.883 86.4508 119.883 86.4566 119.883C 86.4595 119.883 86.4615 119.883 86.4629 119.883C 86.4636 119.883 86.4641 119.883 86.4644 119.883C 86.4647 119.883 86.4648 119.883 86.5685 106.883ZM 29.1849 94.3763C 22.6614 95.1846 18.2786 99.6464 16.5941 101.395C 14.4874 103.609 12.5552 106.07 10.9593 107.919C 9.36877 109.774 8.76005 110.533 7.88497 111.008C 7.68255 111.142 8.94517 110.308 10.9001 110.704L 5.73915 136.186C 12.5613 137.568 18.2699 135.304 22.1976 132.714C 25.4525 130.467 28.658 127.208 30.671 124.873C 32.6786 122.533 34.1394 120.632 35.3204 119.432C 36.9235 117.768 35.7231 119.765 32.382 120.179L 29.1849 94.3763ZM 10.9001 110.704C 11.3197 110.789 12.1324 111.165 12.767 111.901C 13.2387 112.447 13.2411 112.761 13.1475 112.395C 12.9603 111.865 13.0014 111.825 13.0004 111.061C 12.9935 110.811 12.997 110.812 13.0103 110.62C 13.0119 110.585 13.0124 110.595 13.0096 110.622C 13.0112 110.607 13.0012 110.704 13.0018 110.698C 13.0037 110.681 12.9943 110.765 12.9952 110.757C 12.9965 110.746 12.9905 110.797 12.9911 110.792C 12.9918 110.786 12.9885 110.813 12.9888 110.81C 12.9885 110.814 12.9879 110.819 12.9877 110.82C 12.987 110.825 12.9864 110.83 0.0829183 109.249C -12.8206 107.668 -12.8212 107.674 -12.8219 107.679C -12.8221 107.681 -12.8227 107.686 -12.8231 107.689C -12.8236 107.693 -12.8249 107.704 -12.8258 107.711C -12.8268 107.72 -12.8295 107.743 -12.8315 107.76C -12.8338 107.78 -12.8396 107.831 -12.844 107.871C -12.8497 107.923 -12.8625 108.047 -12.8727 108.152C -12.8871 108.304 -12.9148 108.633 -12.9351 108.937C -12.9658 109.422 -13.0031 110.392 -12.9984 111.319C -12.976 112.909 -12.7009 116.048 -12.0458 118.821C -10.5052 124.86 -5.83267 133.843 5.73915 136.186L 10.9001 110.704ZM 13.066 109.913C 13.1874 107.537 13.3472 105.982 13.539 104.916C 13.7303 103.851 13.8667 103.796 13.6523 104.186C 13.3426 104.748 12.7879 105.374 12.1339 105.793C 11.632 106.114 11.5486 106.002 12.4852 105.805L 7.14928 80.3589C 0.954941 81.6578 -5.31381 84.7239 -9.12527 91.6486C -12.1468 97.1381 -12.6464 103.622 -12.9001 108.586L 13.066 109.913ZM 13.934 105.413C 19.0395 103.709 22.689 100.713 25.2711 96.7535C 27.0034 93.9516 28.1221 91.1428 29.0734 89.1419L 5.53687 78.0952C 5.19846 78.8173 4.87897 79.5279 4.62066 80.1083C 4.36135 80.6911 4.15318 81.1643 3.96005 81.5865C 3.58828 82.4045 3.38745 82.6712 3.49371 82.5498C 3.60862 82.3736 3.96495 81.8888 4.58864 81.4038C 4.87709 81.1795 5.14625 81.0153 5.36428 80.9023C 5.57575 80.7928 5.70216 80.7507 5.70044 80.7513L 13.934 105.413ZM 29.0734 89.1419C 30.1493 86.8453 34.8639 77.6062 39.6574 67.0689C 44.1876 57.1026 49.6524 44.1429 51.1025 35.234L 25.4402 31.057C 24.6439 35.9494 20.7947 45.7353 15.988 56.3097C 11.4445 66.3131 6.79918 75.4098 5.53687 78.0952L 29.0734 89.1419ZM 51.1025 35.234C 52.2215 28.3587 52.4901 26.703 52.6442 25.1974C 52.7918 23.6811 52.7352 23.3727 53.4334 17.2741L 27.6021 14.3168C 26.8827 20.6002 26.8261 22.0663 26.7665 22.6792C 26.7134 23.3027 26.5676 24.131 25.4402 31.057L 51.1025 35.234ZM 53.4334 17.2741C 53.6699 15.2084 54.0465 14.2426 54.2031 13.9179C 54.308 13.7002 54.268 13.8435 54.0598 14.0039C 53.9291 14.1045 54.0704 13.9421 54.9034 13.6922C 55.7951 13.4246 57.0683 13.1735 59.0595 12.9118L 55.6717 -12.8666C 51.0926 -12.2648 44.0997 -11.1438 38.1921 -6.59266C 31.5953 -1.51046 28.5612 5.93946 27.6021 14.3168L 53.4334 17.2741ZM 46.3811 60.6028C 46.0844 60.1529 47.3836 62.4105 48.5426 64.7042C 49.7192 67.0311 51.0889 69.8222 52.4575 72.6405C 55.1937 78.2746 57.8577 83.884 58.4888 85.137L 81.7015 73.4248C 81.2094 72.4518 78.6317 67.0202 75.8455 61.2826C 73.2847 56.0094 69.9728 49.261 68.3501 46.6973L 46.3811 60.6028ZM 58.4888 85.137C 58.1964 84.5574 58.0687 84.1499 58.0271 84.0097C 58.0218 84.0155 57.9401 83.6853 57.9418 83.6476C 57.9342 83.599 57.8638 83.2023 57.9869 82.4636C 58.0948 81.8164 58.5657 79.6733 60.663 77.6728C 63.1273 75.3223 66.0209 74.8672 67.6934 74.992L 65.7577 100.92C 70.0682 101.242 74.8424 100.079 78.6085 96.4866C 82.0078 93.2442 83.2019 89.3252 83.6331 86.7382C 84.4248 81.9886 83.4692 76.9283 81.7015 73.4248L 58.4888 85.137ZM 66.7256 74.9559L 40.5177 74.9559L 40.5177 100.956L 66.7256 100.956L 66.7256 74.9559ZM 40.7604 74.9582C 40.9066 74.9609 42.8258 74.9749 45.0929 76.376C 47.8882 78.1034 49.3689 80.7595 49.8801 82.978C 50.2729 84.6827 50.0162 85.737 50.0785 85.3647C 50.149 84.8592 50.2701 84.4401 50.6655 83.2035L 25.8773 75.3583C 25.0397 78.0048 23.3125 83.4717 24.5439 88.8159C 25.3757 92.4256 27.5407 96.093 31.4244 98.4932C 34.7799 100.567 38.1917 100.915 40.2751 100.954L 40.7604 74.9582ZM 38.2714 79.2809C 50.2813 84.2569 50.2813 84.2569 50.2813 84.2569C 50.2814 84.2568 50.2814 84.2567 50.2815 84.2564C 50.2818 84.2559 50.282 84.2552 50.2825 84.2541C 50.2835 84.2516 50.2849 84.2483 50.2869 84.2434C 50.2911 84.2334 50.2971 84.219 50.3053 84.1992C 50.322 84.1588 50.3463 84.1002 50.3788 84.0219C 50.4445 83.8639 50.5398 83.6344 50.6634 83.3377C 50.9118 82.741 51.2661 81.8915 51.701 80.8533C 52.5738 78.7696 53.7492 75.978 54.9995 73.052C 56.2508 70.1233 57.5403 67.1444 58.6662 64.6296C 59.7768 62.1473 61.1148 59.5512 60.799 60.085L 38.2077 47.2151C 36.6167 50.0079 33.4441 57.3277 31.0904 62.8364C 29.8135 65.8252 28.6021 68.7019 27.7199 70.8079C 27.2774 71.8645 26.9121 72.7402 26.6603 73.3449C 26.5338 73.649 26.4339 73.8893 26.3668 74.0508C 26.3329 74.1324 26.3066 74.196 26.2892 74.2379C 26.2803 74.2593 26.2733 74.2761 26.2688 74.2869C 26.2665 74.2925 26.2647 74.297 26.2635 74.2998C 26.2629 74.3013 26.2623 74.3026 26.262 74.3034C 26.2618 74.3038 26.2617 74.3042 26.2616 74.3044C 26.2615 74.3047 26.2614 74.3049 38.2714 79.2809ZM 60.799 60.085C 60.5782 60.4726 58.2098 64.0162 52.9784 63.8325C 48.3596 63.6704 46.4393 60.6948 46.3811 60.6028L 68.3501 46.6973C 66.0456 43.0564 61.3173 38.1093 53.8906 37.8486C 45.8512 37.5663 40.6749 42.8844 38.2077 47.2151L 60.799 60.085Z"/>
<path id="path7_fill" fill-rule="evenodd" d="M 83.6959 16.1663C 93.9027 30.3962 115.823 80.0877 117.174 85.2236C 118.525 90.3594 124.931 98.198 127.789 98.198C 130.647 98.1979 132.28 99.4535 132.689 103.639C 133.097 107.824 129.833 114.187 119.624 114.102L 78.7966 114.102C 73.489 114.102 68.6211 110.263 68.998 105.313C 69.3749 100.363 71.6905 98.6163 75.7933 98.5235C 79.8962 98.4307 79.4678 90.153 75.7933 88.4788C 72.1189 86.8047 41.6438 85.2235 37.9693 88.1533C 34.2949 91.083 35.5197 96.5239 37.9693 98.198C 40.419 99.872 46.1348 99.4535 46.1348 105.313C 46.1348 111.172 42.0521 112.847 35.1114 114.102C 28.1708 115.358 12.6564 115.358 6.94063 114.102C 1.22482 112.847 2.97132e-05 108.661 2.50459e-10 105.313C -2.97127e-05 101.965 2.64366 98.3083 9.79854 98.198C 16.9534 98.0876 35.928 44.2077 39.6024 37.0927C 43.2769 29.9778 39.6024 18.6775 43.2769 10.3069C 46.9513 1.93628 50.2175 1.51781 55.9333 0.262186C 61.6491 -0.993434 73.489 1.93636 83.6959 16.1663ZM 68.1815 61.3674C 67.365 58.0192 62.874 48.8116 60.8326 46.7189C 58.7912 44.6262 55.5698 43.5251 53.0754 46.7189C 50.5811 49.9127 47.7679 56.7636 46.5431 61.3674C 45.3182 65.9713 46.3154 66.7692 49.401 67.6453L 65.7319 67.6453C 69.4063 67.6453 68.998 64.7156 68.1815 61.3674Z"/>
<path id="path8_stroke_2x" d="M 119.624 114.102C 119.624 107.602 119.624 107.602 119.623 107.602C 119.623 107.602 119.623 107.602 119.622 107.602C 119.621 107.602 119.619 107.602 119.617 107.602C 119.613 107.602 119.607 107.602 119.598 107.602C 119.581 107.602 119.555 107.602 119.522 107.602C 119.454 107.602 119.354 107.602 119.224 107.602C 118.962 107.602 118.578 107.602 118.087 107.602C 117.106 107.602 115.697 107.602 113.991 107.602C 110.578 107.602 105.972 107.602 101.201 107.602C 91.6572 107.602 81.4504 107.602 78.7967 107.602L 78.7965 120.602C 81.4503 120.602 91.6572 120.602 101.201 120.602C 105.972 120.602 110.578 120.602 113.991 120.602C 115.697 120.602 117.106 120.602 118.087 120.602C 118.578 120.602 118.962 120.602 119.224 120.602C 119.354 120.602 119.454 120.602 119.522 120.602C 119.555 120.602 119.581 120.602 119.598 120.602C 119.607 120.602 119.613 120.602 119.617 120.602C 119.62 120.602 119.621 120.602 119.622 120.602C 119.623 120.602 119.623 120.602 119.623 120.602C 119.624 120.602 119.624 120.602 119.624 114.102ZM 65.7319 61.1453C 63.8946 61.1453 59.8119 61.1453 56.1885 61.1453C 54.3768 61.1453 52.6799 61.1453 51.436 61.1453C 50.814 61.1453 50.3052 61.1453 49.952 61.1453C 49.7753 61.1453 49.6376 61.1453 49.544 61.1453C 49.4972 61.1453 49.4614 61.1453 49.4374 61.1453C 49.4254 61.1453 49.4163 61.1453 49.4102 61.1453C 49.4071 61.1453 49.4048 61.1453 49.4033 61.1453C 49.4025 61.1453 49.4019 61.1453 49.4015 61.1453C 49.4014 61.1453 49.4012 61.1453 49.4011 61.1453C 49.401 61.1453 49.401 61.1453 49.401 67.6453C 49.401 74.1453 49.401 74.1453 49.4011 74.1453C 49.4012 74.1453 49.4014 74.1453 49.4015 74.1453C 49.4019 74.1453 49.4025 74.1453 49.4033 74.1453C 49.4048 74.1453 49.4071 74.1453 49.4102 74.1453C 49.4163 74.1453 49.4254 74.1453 49.4374 74.1453C 49.4614 74.1453 49.4972 74.1453 49.544 74.1453C 49.6376 74.1453 49.7753 74.1453 49.952 74.1453C 50.3052 74.1453 50.814 74.1453 51.436 74.1453C 52.6799 74.1453 54.3768 74.1453 56.1885 74.1453C 59.8119 74.1453 63.8946 74.1453 65.7319 74.1453L 65.7319 61.1453ZM 119.624 114.102L 119.731 101.103L 119.678 101.102L 119.624 101.102L 119.624 114.102ZM 78.7966 114.102L 78.7964 127.102L 78.7966 127.102L 78.7966 114.102ZM 49.401 67.6453L 45.8501 80.151L 47.5911 80.6453L 49.401 80.6453L 49.401 67.6453ZM 46.5431 61.3674L 33.9801 58.0251L 46.5431 61.3674ZM 73.1323 23.7433C 77.3998 29.6929 84.9345 44.51 91.975 59.6013C 95.3919 66.9245 98.495 73.8773 100.862 79.3944C 103.202 84.8434 104.714 89.0515 104.602 88.5305L 129.747 81.9167C 129.102 79.4657 126.977 74.3198 124.755 69.1411C 122.313 63.4519 119.045 56.1295 115.537 48.6091C 108.728 34.0132 100.199 16.8696 94.2594 8.58927L 73.1323 23.7433ZM 104.602 88.5305C 105.948 93.6475 109.16 98.5732 111.853 101.867C 113.284 103.596 115.369 105.718 117.017 107.062C 118.228 108.027 122.252 111.198 127.789 111.198L 127.789 85.198C 129.074 85.1979 130.107 85.414 130.803 85.6139C 131.506 85.8159 132.031 86.0491 132.355 86.2102C 132.688 86.3755 132.915 86.5182 133.033 86.596C 133.02 86.5864 133.164 86.6853 133.17 86.6906C 133.183 86.6995 133.185 86.7005 133.213 86.7234C 133.286 86.7785 133.214 86.7308 133.102 86.6258C 132.975 86.5123 132.965 86.5017 132.815 86.3472C 132.49 86.0212 132.336 85.8465 131.98 85.4068C 131.341 84.6253 130.737 83.7513 130.279 82.9526C 129.746 82.0539 129.725 81.6611 129.747 81.9167L 104.602 88.5305ZM 127.789 111.198C 127.441 111.198 124.47 111.11 121.852 108.427C 119.614 106.132 119.656 103.933 119.75 104.901L 145.627 102.377C 145.313 99.1595 144.334 94.2396 140.463 90.2712C 136.212 85.9132 130.995 85.1979 127.789 85.198L 127.789 111.198ZM 119.75 104.901C 119.592 103.279 120.129 102.118 120.809 101.418C 121.182 101.033 121.479 100.914 121.469 100.917C 121.435 100.93 120.93 101.113 119.731 101.103L 119.516 127.102C 127.432 127.167 134.479 124.665 139.467 119.525C 144.229 114.618 146.194 108.184 145.627 102.377L 119.75 104.901ZM 78.7967 101.102C 79.1599 101.102 79.6501 101.198 80.2479 101.712C 80.9404 102.309 82.1418 103.92 81.9605 106.3L 56.0356 104.326C 55.4774 111.657 58.9243 117.662 63.2834 121.415C 67.5478 125.087 73.1258 127.102 78.7964 127.102L 78.7967 101.102ZM 81.9605 106.3C 82.0212 105.503 82.0606 107.547 79.8865 109.584C 77.7199 111.613 75.5941 111.531 76.0873 111.52L 75.4993 85.5268C 71.8897 85.6085 66.5546 86.4459 62.1104 90.6097C 57.6586 94.7804 56.3518 100.172 56.0356 104.326L 81.9605 106.3ZM 76.0873 111.52C 82.3246 111.379 86.8701 107.782 89.2471 103.74C 91.3245 100.207 91.7696 96.5003 91.7063 93.7903C 91.5852 91.3571 90.68 87.4502 89.6105 85.0544C 88.2716 82.3022 85.7018 78.7075 81.1833 76.6488L 70.4034 100.309C 67.7221 99.0871 66.5838 97.155 66.2304 96.4286C 65.8359 95.6177 65.7263 94.9531 65.7134 94.398C 65.7035 93.9783 65.7162 92.4631 66.8348 90.5608C 68.2529 88.149 71.3134 85.6215 75.4993 85.5268L 76.0873 111.52ZM 81.1833 76.6488C 78.9552 75.6337 76.4643 75.2172 75.391 75.0392C 73.9392 74.8011 72.0062 74.5587 70.1239 74.3722C 66.4557 74.0132 61.7313 73.7217 57.2441 73.5946C 52.7564 73.4712 47.857 73.5042 44.0147 73.7638C 42.0103 73.9058 39.7004 74.1768 37.9961 74.5006C 36.7889 74.7375 33.0393 75.4577 29.8649 77.9887L 46.0738 98.3178C 43.818 100.116 41.8245 100.245 43.0016 100.014C 43.6815 99.8703 44.3841 99.7972 45.8109 99.7017C 48.8308 99.486 52.4688 99.4696 56.5186 99.5845C 60.5688 99.6957 64.3818 99.9304 67.5759 100.247C 69.1248 100.399 70.2041 100.531 71.1366 100.689C 72.4476 100.906 71.7128 100.905 70.4034 100.309L 81.1833 76.6488ZM 29.8649 77.9887C 24.0155 82.6526 22.2893 89.3106 22.7133 94.6715C 23.0881 99.4103 25.3387 105.312 30.6344 108.931L 45.3043 87.4649C 46.8954 88.5523 47.6685 89.7751 48.0099 90.4473C 48.3856 91.1871 48.5762 91.9122 48.6323 92.6215C 48.7501 94.111 48.2487 96.5837 46.0738 98.3178L 29.8649 77.9887ZM 30.6344 108.931C 31.9676 109.842 33.2315 110.419 34.0915 110.772C 34.8584 111.08 35.7314 111.382 36.2399 111.549C 36.7441 111.713 37.0582 111.811 37.3076 111.9C 37.5141 111.973 37.4789 111.97 37.3222 111.895C 37.0142 111.746 35.7242 111.074 34.5935 109.477C 33.366 107.743 33.1348 106.078 33.1348 105.313L 59.1348 105.313C 59.1348 101.618 58.1891 97.8083 55.8133 94.4527C 53.7797 91.9197 50.3903 89.3764 48.6191 88.4772C 46.8362 87.6597 45.0735 87.083 44.3174 86.8352C 43.1929 86.4677 44.1479 86.6746 45.3043 87.4649L 30.6344 108.931ZM 33.1348 105.313C 33.1348 105.269 33.1462 104.419 33.7188 103.253C 34.3273 102.013 35.1901 101.186 35.8236 100.747C 36.3306 100.396 36.505 100.421 35.8805 100.616C 35.2706 100.807 34.3178 101.035 32.7971 101.31L 37.4257 126.895C 40.8484 126.275 46.1825 125.2 50.6281 122.121C 56.4322 118.1 59.1348 111.983 59.1348 105.313L 33.1348 105.313ZM 32.7971 101.31C 30.1182 101.819 25.6643 102.049 20.5667 102.044C 15.1727 102.044 11.0961 101.705 9.72996 101.405L 4.1513 126.799C 8.50097 127.755 15.0394 128.044 20.5667 128.044C 26.3904 128.039 33.1641 127.64 37.4257 126.895L 32.7971 101.31ZM 9.72996 101.405C 9.69905 101.398 10.1177 101.489 10.7276 101.901C 11.3577 102.328 11.9162 102.911 12.3293 103.568C 13.0809 104.762 13 105.594 13 105.313L -13 105.313C -12.9578 108.034 -11.8538 113.468 -9.67555 117.417C -6.62416 122.265 -1.76913 125.499 4.1513 126.799L 9.72996 101.405ZM 13 105.313C 13 107.156 12.2096 109.085 10.7249 110.37C 9.34401 111.565 8.53336 111.219 9.99895 111.196L 9.59813 85.1995C 3.90884 85.2872 -1.8011 86.8243 -6.29257 90.7126C -10.8878 94.6908 -13 100.122 -13 105.313L 13 105.313ZM 9.99895 111.196C 14.3986 111.129 17.5677 109.108 19.1062 107.946C 20.4038 106.919 22.0996 105.211 23.0925 104.005C 24.7747 101.887 26.7459 98.7763 28.353 95.86C 31.4265 90.2414 34.8622 82.6804 37.9733 75.349C 41.0803 68.0226 44.0755 60.4804 46.4814 54.4305C 47.6841 51.4062 48.7279 48.7841 49.5863 46.6937C 50.4272 44.644 51.4115 42.5747 51.153 43.0579L 28.0518 31.1275C 26.8569 33.4748 24.7314 38.7634 22.3217 44.8226C 19.9129 50.8797 17.0283 58.1484 14.038 65.1952C 11.0518 72.237 8.17265 78.6113 5.56129 83.3485C 4.32596 85.6102 3.61222 86.7824 2.87292 87.6598C 2.61716 87.9762 2.80077 87.6785 3.43775 87.1975C 3.91046 86.8405 6.09286 85.2536 9.59813 85.1995L 9.99895 111.196ZM 51.153 43.0579C 54.7339 36.1243 54.4397 27.9683 54.4397 24.1707C 54.4397 18.7729 54.6404 16.7625 55.1805 15.5322L 31.3733 5.08155C 28.2389 12.2219 28.4397 20.047 28.4397 24.1707C 28.4397 28.9314 27.2965 31.7892 28.0518 31.1275L 51.153 43.0579ZM 55.1805 15.5322C 56.5379 12.4399 56.97 12.8293 55.9788 13.4807C 55.585 13.7395 55.3697 13.7628 55.7611 13.6466C 56.3489 13.4721 56.9889 13.3403 58.7226 12.9594L 53.1441 -12.4351C 50.4895 -11.8502 45.974 -10.7505 41.7004 -8.24784C 36.7285 -4.98067 33.6903 -0.196724 31.3733 5.08155L 55.1805 15.5322ZM 58.7226 12.9594C 57.8826 13.144 64.9584 12.3475 73.1323 23.7433L 94.2594 8.58927C 82.0197 -8.47482 65.4157 -15.1308 53.1441 -12.4351L 58.7226 12.9594ZM 51.5268 55.7965C 51.0657 55.3237 50.893 55.0403 51.0373 55.2473C 51.2009 55.4768 51.2962 55.6297 51.5594 56.074C 52.1325 57.0294 52.6738 58.0428 53.3216 59.3517C 53.9742 60.6631 54.495 61.7974 54.9704 62.9474C 55.4227 64.0264 55.5734 64.6149 55.5517 64.4475L 80.8113 58.2873C 80.0302 55.0844 78.1122 50.8176 76.6111 47.793C 75.7789 46.1199 74.7637 44.2297 73.8951 42.7655C 73.1451 41.5068 71.8161 39.3612 70.1384 37.6413L 51.5268 55.7965ZM 55.5517 64.4475C 55.7221 65.143 55.7749 65.5884 55.7657 65.4159C 55.7619 65.386 55.7333 65.1611 55.7341 64.7942C 55.735 64.4343 55.764 63.7828 55.949 62.9481C 56.3591 61.0982 57.555 58.4299 60.3093 56.496C 62.7877 54.7558 65.0795 54.6453 65.7319 54.6453L 65.7319 80.6453C 68.2215 80.6453 71.8401 80.1687 75.2499 77.7746C 78.9356 75.1867 80.6673 71.5766 81.3326 68.5758C 82.3555 63.9623 81.0743 59.3656 80.8113 58.2873L 55.5517 64.4475ZM 52.9518 55.1397C 52.2994 54.9544 52.7904 55.0426 53.5784 55.4611C 54.5944 56.0008 56.4523 57.2638 57.7713 59.6849C 59.024 61.9841 59.0573 63.9945 59.0278 64.7065C 59.0013 65.3451 58.9013 65.4796 59.1061 64.7097L 33.9801 58.0251C 33.4359 60.0704 31.7245 66.2219 34.9399 72.1237C 38.3868 78.4506 45.0365 79.92 45.8501 80.151L 52.9518 55.1397ZM 59.1061 64.7097C 59.5769 62.9006 60.264 60.9571 61.2555 58.6969C 61.7405 57.5754 62.113 56.7946 62.591 55.926C 63.0298 55.1078 63.5451 54.4618 63.321 54.7207L 42.8298 38.7171C 38.7671 43.9191 35.3918 52.7185 33.9801 58.0251L 59.1061 64.7097ZM 63.321 54.7207C 62.8761 55.2903 61.9649 56.2109 60.4605 56.899C 58.9183 57.6045 57.2879 57.8181 55.8265 57.6716C 53.2013 57.4082 51.8538 56.1317 51.5268 55.7965L 70.1384 37.6413C 67.77 35.2134 63.7912 32.3399 58.4213 31.8014C 52.126 31.1699 46.5101 34.0049 42.8298 38.7171L 63.321 54.7207ZM 119.624 101.102L 78.7966 101.102L 78.7966 127.102L 119.624 127.102L 119.624 101.102ZM 49.401 80.6453L 65.7319 80.6453L 65.7319 54.6453L 49.401 54.6453L 49.401 80.6453Z"/>
<path id="path9_fill" d="M 23.8208 66.125C 24.4474 66.125 24.7607 66.4562 24.7607 67.1187C 24.7607 67.62 24.4832 68.0765 23.9282 68.4883C 23.0868 69.0612 22.2363 69.6699 21.377 70.3145C 18.2617 72.6419 15.3971 73.8057 12.7832 73.8057C 11.3151 73.8057 9.91862 73.4297 8.59375 72.6777C 5.78288 71.1022 3.76872 68.2645 2.55127 64.1646C 1.94255 62.1056 1.63818 60.1452 1.63818 58.2832C 1.63818 55.2217 2.12158 51.5783 3.08838 47.353C 4.07308 43.1099 5.47852 38.8398 7.30469 34.543C 9.13086 30.2282 11.3151 26.6296 13.8574 23.7471C 16.3997 20.8646 19.1032 19.4233 21.9678 19.4233C 24.8324 19.4233 27.2404 20.6229 29.1919 23.022C 31.1434 25.4032 32.1191 27.8381 32.1191 30.3267C 32.0654 30.7026 31.8774 31.0518 31.5552 31.374C 31.2329 31.6963 30.9106 31.8574 30.5884 31.8574C 30.2661 31.8574 30.0244 31.75 29.8633 31.5352C 29.6305 31.2129 29.4694 30.6221 29.3799 29.7627C 29.0934 27.4889 28.2788 25.6449 26.936 24.2305C 25.5933 22.7982 23.9193 22.082 21.9141 22.082C 19.9089 22.082 17.7694 23.4338 15.4956 26.1372C 12.4699 29.7179 9.87386 34.7936 7.70752 41.3643C 5.54118 47.917 4.45801 53.1001 4.45801 56.9136C 4.45801 60.7091 5.10254 63.887 6.3916 66.4473C 7.96712 69.5625 10.2409 71.1201 13.2129 71.1201C 15.3971 71.1201 17.9036 70.0996 20.7324 68.0586C 21.5202 67.4857 22.1558 67.0202 22.6392 66.6621C 23.1226 66.304 23.5164 66.125 23.8208 66.125ZM 46.6479 56.6719L 46.7554 57.1553C 46.7554 57.5671 46.6121 57.9341 46.3257 58.2563C 46.0213 58.5607 45.6901 58.7129 45.332 58.7129C 44.5622 58.7129 44.1772 58.1758 44.1772 57.1016C 44.1772 54.9352 46.3436 52.554 50.6763 49.958C 52.1623 49.0807 53.3618 48.472 54.2749 48.1318C 55.2059 47.7917 56.1548 47.4067 57.1216 46.9771C 58.1063 46.5474 58.9388 46.2251 59.6191 46.0103C 60.3174 45.7775 60.765 45.6253 60.9619 45.5537C 61.7318 42.3311 62.3226 38.9831 62.7344 35.5098C 63.1462 32.0365 63.4595 29.2793 63.6743 27.2383C 63.9071 25.1794 64.1577 23.1294 64.4263 21.0884C 64.5337 20.2111 65.0618 19.7725 66.0107 19.7725C 66.4046 19.7725 66.6642 19.8441 66.7896 19.9873C 66.9328 20.1305 66.9865 20.3633 66.9507 20.6855C 66.521 25.8239 65.4199 33.8716 63.6475 44.8286C 69.1618 43.4142 76.1442 42.519 84.5947 42.1431C 85.7943 33.048 86.5194 27.9902 86.77 26.9697C 87.5578 23.7829 87.9875 21.6344 88.0591 20.5244C 88.1665 20.1663 88.3724 19.862 88.6768 19.6113C 88.999 19.3428 89.3302 19.2085 89.6704 19.2085C 90.118 19.2085 90.4224 19.5218 90.5835 20.1484C 90.5298 21.1331 90.3597 22.2432 90.0732 23.4785L 89.4019 26.3789C 89.0796 27.7754 88.6947 30.1745 88.2471 33.5762C 87.7995 36.96 87.4235 39.7977 87.1191 42.0894L 99.6606 41.7134C 100.287 41.8745 100.601 42.1878 100.601 42.6533C 100.601 42.9756 100.466 43.2979 100.198 43.6201C 99.9471 43.9245 99.6427 44.1304 99.2847 44.2378C 97.2078 44.3273 95.131 44.39 93.0542 44.4258C 90.9774 44.4616 88.8737 44.5063 86.7432 44.5601C 86.4209 47.174 85.9465 50.0565 85.3198 53.2075C 84.6932 56.3586 84.0934 59.4917 83.5205 62.6069C 82.9655 65.7043 82.6253 68.8553 82.5 72.0601C 82.4463 72.5076 82.2493 72.8747 81.9092 73.1611C 81.5869 73.4655 81.2557 73.6177 80.9155 73.6177C 80.3605 73.6177 80.0472 73.2327 79.9756 72.4629C 80.1009 69.1507 80.45 65.9281 81.0229 62.7949C 81.5959 59.6439 82.0703 57.1284 82.4463 55.2485C 82.8223 53.3507 83.1714 51.444 83.4937 49.5283L 84.2725 44.6675C 75.7682 45.0076 68.6694 45.9476 62.9761 47.4873C 61.866 51.9811 60.6755 56.4212 59.4043 60.8076C 58.151 65.194 56.9963 69.5177 55.9399 73.7788C 55.564 74.5129 55.0537 74.8799 54.4092 74.8799C 53.8542 74.8799 53.5409 74.5129 53.4692 73.7788C 54.4718 69.661 55.5819 65.4715 56.7993 61.2104C 58.0168 56.9315 59.1805 52.6077 60.2905 48.2393C 55.5998 49.7969 51.8758 51.6678 49.1187 53.8521C 48.9754 53.9595 48.7695 54.1117 48.501 54.3086C 47.2656 55.2217 46.6479 55.9736 46.6479 56.5645C 46.6479 56.6003 46.6479 56.6361 46.6479 56.6719ZM 97.1899 55.4634C 98.6043 55.6424 100.986 55.8035 104.333 55.9468C 107.431 51.2739 111.396 44.39 116.23 35.2949C 119.256 29.6016 121.217 24.696 122.112 20.5781C 122.255 20.2021 122.488 19.8888 122.81 19.6382C 123.132 19.3875 123.446 19.2622 123.75 19.2622C 124.215 19.2622 124.475 19.5397 124.529 20.0947C 124.815 20.3812 124.941 20.7035 124.905 21.0615C 124.887 21.4196 124.779 21.6971 124.583 21.894C 124.171 23.3442 123.875 24.866 123.696 26.4595C 123.535 28.035 123.186 30.9622 122.649 35.2412C 122.13 39.5202 121.87 43.1188 121.87 46.0371C 121.87 48.9554 122.094 52.5003 122.542 56.6719C 124.744 56.9046 125.934 57.1463 126.113 57.397C 126.292 57.6476 126.382 57.9251 126.382 58.2295C 126.382 58.5339 126.212 58.8472 125.872 59.1694C 125.549 59.4738 125.191 59.617 124.797 59.5991C 124.421 59.5633 124.09 59.5275 123.804 59.4917C 123.517 59.438 123.222 59.3932 122.917 59.3574L 122.917 59.626C 122.917 59.7334 122.944 60.0109 122.998 60.4585C 123.07 60.9061 123.105 61.5238 123.105 62.3115C 123.123 63.0993 123.159 63.8065 123.213 64.4331C 123.285 65.0418 123.392 65.6774 123.535 66.3398C 123.678 67.0023 123.884 67.9601 124.153 69.2134C 124.439 70.4487 124.583 71.2633 124.583 71.6572C 124.583 72.0511 124.43 72.4002 124.126 72.7046C 123.84 73.009 123.508 73.1611 123.132 73.1611C 122.774 73.1611 122.461 72.9015 122.192 72.3823C 121.924 71.8452 121.7 71.1649 121.521 70.3413C 121.342 69.5177 121.19 68.5957 121.064 67.5752C 120.957 66.5547 120.859 65.5521 120.769 64.5674C 120.68 63.5648 120.599 62.6427 120.527 61.8013C 120.474 60.9419 120.411 60.2705 120.339 59.7871L 120.178 59.0352C 117.743 58.7845 115.282 58.6413 112.793 58.6055C 110.304 58.5697 107.816 58.5249 105.327 58.4712C 100.601 65.6326 96.1426 70.1623 91.9531 72.0601C 90.5566 72.7583 89.4645 73.1074 88.6768 73.1074C 87.71 73.1074 87.2266 72.6509 87.2266 71.7378C 87.2266 71.2723 87.3877 70.8695 87.71 70.5293C 88.0322 70.1891 88.3724 70.019 88.7305 70.019C 89.0706 70.019 89.3392 70.1712 89.5361 70.4756L 89.5898 70.4219C 93.4212 68.9359 97.0378 65.9281 100.439 61.3984C 100.959 60.6823 101.379 60.1183 101.702 59.7065C 102.024 59.2948 102.337 58.8651 102.642 58.4175C 99.8665 58.2743 97.7897 58.131 96.4111 57.9878C 95.9098 57.7909 95.6592 57.4954 95.6592 57.1016C 95.6592 56.7077 95.8114 56.3496 96.1157 56.0273C 96.438 55.7051 96.7961 55.5171 97.1899 55.4634ZM 119.91 56.4033C 119.605 54.0042 119.453 50.7547 119.453 46.6548C 119.453 42.5369 119.838 37.5508 120.608 31.6963C 118.442 36.1901 116.034 40.7466 113.384 45.3657C 110.752 49.967 108.639 53.5119 107.046 56.0005C 109.194 56.0363 111.343 56.0721 113.491 56.1079C 115.658 56.1258 117.797 56.2243 119.91 56.4033ZM 172.224 21.0884C 172.708 20.2111 173.236 19.7725 173.809 19.7725C 174.399 19.7725 174.695 20.041 174.695 20.5781C 174.695 20.6318 174.695 20.6855 174.695 20.7393C 173.603 38.9473 172.994 55.6872 172.869 70.959C 173.101 71.4245 173.092 71.89 172.842 72.3555C 172.412 73.2327 171.911 73.6714 171.338 73.6714C 170.64 73.6714 170.264 73.0537 170.21 71.8184C 170.192 71.4603 170.183 70.3234 170.183 68.4077C 170.183 66.492 170.228 63.7707 170.317 60.2437C 170.425 56.7166 170.541 53.1807 170.667 49.6357C 170.81 46.0729 170.953 42.528 171.096 39.001C 171.239 35.4561 171.356 31.9559 171.445 28.5005C 169.673 32.4572 166.593 38.6071 162.207 46.9502C 157.839 55.2754 154.902 60.9508 153.398 63.9766C 152.987 64.7464 152.521 65.1313 152.002 65.1313C 151.483 65.1313 151.125 64.8717 150.928 64.3525C 149.997 60.0557 148.582 53.6551 146.685 45.1509C 144.787 36.6466 143.489 30.6579 142.791 27.1846C 141.591 33.2718 139.693 41.6686 137.097 52.375C 134.501 63.0814 132.899 69.7952 132.29 72.5166C 131.932 73.2507 131.422 73.6177 130.759 73.6177C 130.204 73.6177 129.891 73.2507 129.819 72.5166C 130.983 66.125 132.961 57.1374 135.754 45.5537C 138.547 33.9521 140.472 25.8149 141.528 21.1421C 141.636 20.784 141.842 20.4797 142.146 20.229C 142.468 19.9604 142.764 19.8262 143.032 19.8262C 143.551 19.8262 143.892 20.1305 144.053 20.7393C 145.575 27.3278 147.105 34.355 148.645 41.8208C 150.203 49.2866 151.474 55.1143 152.458 59.3037C 154.911 55.0785 157.185 50.88 159.28 46.7085C 161.375 42.5369 163.433 38.4191 165.457 34.355C 167.498 30.2909 169.753 25.8687 172.224 21.0884ZM 178.669 73.2148L 178.347 73.376C 177.738 73.376 177.345 73.2596 177.166 73.0269C 176.969 72.812 176.87 72.5076 176.87 72.1138C 178.285 67.4767 179.771 60.9419 181.328 52.5093C 184.927 33.0659 186.95 22.7982 187.397 21.7061C 187.487 21.4733 187.532 21.2316 187.532 20.981C 187.639 20.6229 187.845 20.3096 188.149 20.041C 188.472 19.7725 188.794 19.6382 189.116 19.6382C 189.564 19.6382 189.877 19.9515 190.056 20.5781C 190.056 22.1536 189.6 24.5527 188.687 27.7754C 188.543 28.3125 187.747 32.3498 186.296 39.8872C 184.846 47.4067 182.805 56.833 180.173 68.166C 182.877 64.8538 185.553 61.658 188.203 58.5786C 190.853 55.4813 193.467 52.375 196.045 49.2598C 201.989 42.0804 206.939 35.4023 210.896 29.2256C 211.182 28.778 211.496 28.214 211.836 27.5337C 211.836 27.5337 212.194 26.8175 212.91 25.3853C 214.002 23.2547 214.897 21.6702 215.596 20.6318C 216.294 19.5755 216.947 19.0474 217.556 19.0474C 218.183 19.0474 218.496 19.3786 218.496 20.041C 218.496 20.2559 218.442 20.4707 218.335 20.6855L 218.389 20.6855C 218.353 20.7214 218.29 20.8556 218.201 21.0884C 218.129 21.3032 217.914 21.7061 217.556 22.2969C 217.216 22.8698 216.903 23.6396 216.616 24.6064C 215.488 27.471 214.396 30.2192 213.34 32.8511C 209.67 41.9998 207.834 50.4683 207.834 58.2563C 207.834 64.2183 208.255 68.3809 209.097 70.7441C 210.636 69.6878 212.48 67.611 214.629 64.5137C 215.148 63.7617 215.721 63.0187 216.348 62.2847C 216.688 61.9803 217.055 61.8281 217.449 61.8281C 218.111 61.8281 218.442 62.1235 218.442 62.7144C 218.442 63.0366 218.371 63.3141 218.228 63.5469C 217.798 64.0482 217.341 64.6211 216.858 65.2656C 216.392 65.9102 215.685 66.8411 214.736 68.0586C 212.301 71.2454 210.18 73.0716 208.372 73.5371C 206.51 73.1969 205.552 69.0075 205.498 60.9688C 205.48 59.9482 205.471 58.1937 205.471 55.7051C 205.471 53.2165 205.82 50.1997 206.519 46.6548C 207.235 43.092 208.407 39.2964 210.037 35.2681L 210.574 33.791C 205.042 41.9372 197.244 51.7752 187.183 63.3052C 184.408 66.4741 181.57 69.7773 178.669 73.2148ZM 241.86 75.2021C 241.932 74.6292 242.057 73.8952 242.236 73C 241.717 72.8926 241.198 72.7852 240.679 72.6777C 238.459 72.2301 237.313 71.6393 237.241 70.9053C 237.223 70.8158 237.214 70.6725 237.214 70.4756C 237.214 70.2607 237.322 70.0369 237.537 69.8042C 237.734 69.5535 237.931 69.4282 238.127 69.4282C 238.306 69.4282 238.494 69.4551 238.691 69.5088C 238.942 69.5983 239.363 69.7863 239.954 70.0728C 240.544 70.3413 241.493 70.4756 242.8 70.4756L 244.224 64.4868C 244.779 61.658 245.396 58.8203 246.077 55.9736C 246.775 53.109 247.464 50.2087 248.145 47.2725L 246.479 47.1919C 245.924 47.1919 245.647 46.8875 245.647 46.2788C 245.647 45.4015 246.641 44.9629 248.628 44.9629C 249.434 41.5433 250.15 37.8283 250.776 33.8179C 251.403 29.8075 252.209 26.2357 253.193 23.1025C 252.531 23.389 251.922 23.7739 251.367 24.2573C 251.045 24.9198 250.57 25.251 249.944 25.251C 249.783 25.251 249.586 25.1794 249.353 25.0361C 249.12 24.875 249.004 24.5796 249.004 24.1499C 249.004 23.3084 249.541 22.5654 250.615 21.9209C 251.689 21.2585 252.916 20.793 254.294 20.5244C 254.527 20.1484 254.805 19.9604 255.127 19.9604C 255.467 19.9604 255.754 20.1126 255.986 20.417C 259.388 20.5244 262.118 21.6971 264.177 23.9351C 266.236 26.1551 267.266 29.1271 267.266 32.8511C 267.266 35.8947 266.138 38.7056 263.882 41.2837C 261.644 43.8618 259.128 45.3389 256.335 45.7148C 259.451 45.9118 262.181 47.2814 264.526 49.8237C 266.872 52.3481 268.044 54.971 268.044 57.6924C 268.044 62.9202 266.039 66.8501 262.029 69.4819C 258.036 72.1138 252.62 73.4297 245.781 73.4297L 244.626 73.376C 244.501 73.8952 244.438 74.3338 244.438 74.6919C 244.349 75.1574 244.143 75.5423 243.821 75.8467C 243.516 76.151 243.221 76.3032 242.935 76.3032C 242.308 76.3032 241.95 75.9362 241.86 75.2021ZM 245.11 70.8516C 245.593 70.9232 246.309 70.959 247.258 70.959C 253.113 70.959 257.616 69.7863 260.767 67.4409C 263.936 65.0955 265.52 61.9624 265.52 58.0415C 265.52 55.3022 264.267 52.8584 261.76 50.71C 259.254 48.5615 256.47 47.4873 253.408 47.4873C 252.62 47.4873 251.654 47.4515 250.508 47.3799C 248.771 54.9173 247.679 59.7155 247.231 61.7744C 246.802 63.8333 246.524 65.1045 246.399 65.5879C 246.274 66.0534 246.139 66.5726 245.996 67.1455L 245.54 68.9717C 245.378 69.6162 245.235 70.2428 245.11 70.8516ZM 264.58 32.8779C 264.58 29.5837 263.73 27.0951 262.029 25.4121C 260.346 23.7292 258.153 22.8519 255.449 22.7803C 254.554 25.7344 253.686 29.7358 252.844 34.7847C 252.021 39.8156 251.421 43.1815 251.045 44.8823C 254.823 44.6317 258.018 43.3963 260.632 41.1763C 263.264 38.9383 264.58 36.1722 264.58 32.8779ZM 303.333 19.8262C 303.959 19.8262 304.272 20.1305 304.272 20.7393C 304.272 21.1152 304.129 21.4823 303.843 21.8403C 301.086 25.1346 296.914 29.9238 291.328 36.208C 285.76 42.4922 282.045 46.7264 280.183 48.9106C 280.684 54.049 282.188 58.8561 284.695 63.332C 286.449 66.4473 288.553 68.6673 291.006 69.9922C 292.259 70.6725 293.548 71.0127 294.873 71.0127C 296.198 71.0127 297.218 70.8784 297.935 70.6099C 298.651 70.3413 299.349 69.6878 300.029 68.6494C 300.387 68.363 300.728 68.2197 301.05 68.2197C 301.766 68.2197 302.124 68.542 302.124 69.1865C 302.124 69.8311 301.578 70.6278 300.486 71.5767C 299.394 72.5256 298.382 73.0806 297.451 73.2417C 296.52 73.4028 295.437 73.4834 294.202 73.4834C 292.984 73.4834 291.659 73.1343 290.227 72.436C 288.795 71.7199 287.497 70.762 286.333 69.5625C 284.202 67.4141 282.421 64.63 280.989 61.2104C 279.574 57.7909 278.572 54.3713 277.981 50.9517C 277.587 51.3993 277.211 51.7842 276.853 52.1064C 276.495 52.4287 276.191 52.7957 275.94 53.2075C 274.078 61.6043 272.816 67.8527 272.153 71.9526C 272.064 72.4002 271.858 72.7673 271.536 73.0537C 271.213 73.3402 270.9 73.4834 270.596 73.4834C 270.023 73.4834 269.701 73.0985 269.629 72.3286C 271.276 63.2157 273.326 53.3687 275.779 42.7876C 278.25 32.2065 279.959 24.8213 280.908 20.6318C 281.051 20.2559 281.284 19.9425 281.606 19.6919C 281.929 19.4412 282.215 19.3159 282.466 19.3159C 283.075 19.3159 283.379 19.6471 283.379 20.3096L 283.379 20.6318C 282.484 25.2331 281.49 29.8791 280.398 34.5698C 279.324 39.2427 278.258 43.9155 277.202 48.5884C 279.243 46.2788 283.092 41.973 288.75 35.6709C 294.408 29.3688 298.901 24.2305 302.231 20.2559C 302.59 19.9694 302.957 19.8262 303.333 19.8262ZM 319.312 55.0068C 315.373 55.0068 313.403 51.5425 313.403 44.6138C 313.403 41.1047 314.603 34.7041 317.002 25.4121C 317.378 23.9261 317.763 22.5028 318.157 21.1421C 318.354 20.784 318.631 20.4797 318.989 20.229C 319.365 19.9604 319.705 19.8262 320.01 19.8262C 320.493 19.8262 320.735 20.1305 320.735 20.7393C 318.569 29.6553 317.271 35.4919 316.841 38.249C 316.429 40.9883 316.223 43.3337 316.223 45.2852C 316.223 47.2188 316.581 48.9017 317.297 50.334C 318.031 51.7663 319.043 52.4824 320.332 52.4824C 321.621 52.4824 323.304 51.7752 325.381 50.3608C 327.476 48.9465 329.096 47.4694 330.242 45.9297C 332.748 28.778 335.935 20.2021 339.802 20.2021C 340.912 20.2021 341.467 21.2048 341.467 23.21C 341.467 25.1973 340.778 28.5811 339.399 33.3613C 338.021 38.1237 335.89 42.3311 333.008 45.9834C 332.9 46.6995 332.784 47.4336 332.659 48.1855C 332.551 48.9375 332.426 49.8058 332.283 50.7905C 330.94 60.0646 327.637 66.7337 322.373 70.7979C 319.938 72.6777 317.038 73.6177 313.672 73.6177C 310.324 73.6177 307.352 72.1048 304.756 69.0791C 303.556 67.6647 302.437 66.1787 301.399 64.6211C 300.361 63.0456 299.68 62.0519 299.358 61.6401C 299.018 61.2284 298.848 60.9956 298.848 60.9419L 298.848 60.6465C 298.848 60.2884 299.036 59.9124 299.412 59.5186C 299.788 59.1247 300.128 58.9277 300.432 58.9277C 300.736 58.9277 301.032 59.0173 301.318 59.1963C 302.643 62.1146 304.326 64.6659 306.367 66.8501C 308.927 69.5894 311.658 70.959 314.558 70.959C 317.817 70.8158 320.789 69.2313 323.474 66.2056C 326.16 63.1799 328.013 59.25 329.033 54.416C 329.123 54.0221 329.221 53.4045 329.329 52.563C 329.436 51.7036 329.579 50.6921 329.758 49.5283C 325.569 53.1807 322.087 55.0068 319.312 55.0068ZM 338.782 23.8276C 336.49 28.59 334.816 34.2923 333.76 40.9346C 334.906 38.7682 335.756 36.7451 336.311 34.8652C 337.69 30.1745 338.513 26.4953 338.782 23.8276ZM 360.911 66.125C 361.537 66.125 361.851 66.4562 361.851 67.1187C 361.851 67.62 361.573 68.0765 361.018 68.4883C 360.177 69.0612 359.326 69.6699 358.467 70.3145C 355.352 72.6419 352.487 73.8057 349.873 73.8057C 348.405 73.8057 347.008 73.4297 345.684 72.6777C 342.873 71.1022 340.859 68.2645 339.641 64.1646C 339.032 62.1056 338.728 60.1452 338.728 58.2832C 338.728 55.2217 339.211 51.5783 340.178 47.353C 341.163 43.1099 342.568 38.8398 344.395 34.543C 346.221 30.2282 348.405 26.6296 350.947 23.7471C 353.49 20.8646 356.193 19.4233 359.058 19.4233C 361.922 19.4233 364.33 20.6229 366.282 23.022C 368.233 25.4032 369.209 27.8381 369.209 30.3267C 369.155 30.7026 368.967 31.0518 368.645 31.374C 368.323 31.6963 368 31.8574 367.678 31.8574C 367.356 31.8574 367.114 31.75 366.953 31.5352C 366.72 31.2129 366.559 30.6221 366.47 29.7627C 366.183 27.4889 365.369 25.6449 364.026 24.2305C 362.683 22.7982 361.009 22.082 359.004 22.082C 356.999 22.082 354.859 23.4338 352.585 26.1372C 349.56 29.7179 346.964 34.7936 344.797 41.3643C 342.631 47.917 341.548 53.1001 341.548 56.9136C 341.548 60.7091 342.192 63.887 343.481 66.4473C 345.057 69.5625 347.331 71.1201 350.303 71.1201C 352.487 71.1201 354.993 70.0996 357.822 68.0586C 358.61 67.4857 359.246 67.0202 359.729 66.6621C 360.212 66.304 360.606 66.125 360.911 66.125ZM 360.911 56.6719L 361.018 57.1553C 361.018 57.5671 360.875 57.9341 360.588 58.2563C 360.284 58.5607 359.953 58.7129 359.595 58.7129C 358.825 58.7129 358.44 58.1758 358.44 57.1016C 358.44 54.9352 360.606 52.554 364.939 49.958C 366.425 49.0807 367.625 48.472 368.538 48.1318C 369.469 47.7917 370.417 47.4067 371.384 46.9771C 372.369 46.5474 373.201 46.2251 373.882 46.0103C 374.58 45.7775 375.028 45.6253 375.225 45.5537C 375.994 42.3311 376.585 38.9831 376.997 35.5098C 377.409 32.0365 377.722 29.2793 377.937 27.2383C 378.17 25.1794 378.42 23.1294 378.689 21.0884C 378.796 20.2111 379.325 19.7725 380.273 19.7725C 380.667 19.7725 380.927 19.8441 381.052 19.9873C 381.195 20.1305 381.249 20.3633 381.213 20.6855C 380.784 25.8239 379.683 33.8716 377.91 44.8286C 383.424 43.4142 390.407 42.519 398.857 42.1431C 400.057 33.048 400.782 27.9902 401.033 26.9697C 401.82 23.7829 402.25 21.6344 402.322 20.5244C 402.429 20.1663 402.635 19.862 402.939 19.6113C 403.262 19.3428 403.593 19.2085 403.933 19.2085C 404.381 19.2085 404.685 19.5218 404.846 20.1484C 404.792 21.1331 404.622 22.2432 404.336 23.4785L 403.665 26.3789C 403.342 27.7754 402.957 30.1745 402.51 33.5762C 402.062 36.96 401.686 39.7977 401.382 42.0894L 413.923 41.7134C 414.55 41.8745 414.863 42.1878 414.863 42.6533C 414.863 42.9756 414.729 43.2979 414.46 43.6201C 414.21 43.9245 413.905 44.1304 413.547 44.2378C 411.471 44.3273 409.394 44.39 407.317 44.4258C 405.24 44.4616 403.136 44.5063 401.006 44.5601C 400.684 47.174 400.209 50.0565 399.583 53.2075C 398.956 56.3586 398.356 59.4917 397.783 62.6069C 397.228 65.7043 396.888 68.8553 396.763 72.0601C 396.709 72.5076 396.512 72.8747 396.172 73.1611C 395.85 73.4655 395.518 73.6177 395.178 73.6177C 394.623 73.6177 394.31 73.2327 394.238 72.4629C 394.364 69.1507 394.713 65.9281 395.286 62.7949C 395.859 59.6439 396.333 57.1284 396.709 55.2485C 397.085 53.3507 397.434 51.444 397.756 49.5283L 398.535 44.6675C 390.031 45.0076 382.932 45.9476 377.239 47.4873C 376.129 51.9811 374.938 56.4212 373.667 60.8076C 372.414 65.194 371.259 69.5177 370.203 73.7788C 369.827 74.5129 369.316 74.8799 368.672 74.8799C 368.117 74.8799 367.804 74.5129 367.732 73.7788C 368.735 69.661 369.845 65.4715 371.062 61.2104C 372.279 56.9315 373.443 52.6077 374.553 48.2393C 369.862 49.7969 366.139 51.6678 363.381 53.8521C 363.238 53.9595 363.032 54.1117 362.764 54.3086C 361.528 55.2217 360.911 55.9736 360.911 56.5645C 360.911 56.6003 360.911 56.6361 360.911 56.6719ZM 417.227 74.2085C 410.692 74.2085 407.424 68.3988 407.424 56.7793C 407.424 48.9196 408.937 41.6686 411.963 35.0264C 415.239 27.7754 419.509 24.1499 424.773 24.1499C 426.814 24.1499 428.739 24.884 430.547 26.3521C 430.869 26.7101 431.03 27.0771 431.03 27.4531C 431.03 28.3304 430.735 28.769 430.144 28.769C 430.001 28.769 429.58 28.5811 428.882 28.2051C 427.253 27.3099 425.597 26.8623 423.914 26.8623C 421.711 26.8623 419.509 28.3035 417.307 31.186C 415.105 34.0506 413.324 37.7388 411.963 42.2505C 410.602 46.7622 409.922 51.2202 409.922 55.6245C 409.922 64.1287 411.497 69.276 414.648 71.0664C 415.4 71.4782 416.412 71.6841 417.683 71.6841C 418.954 71.6841 420.288 71.3708 421.685 70.7441C 425.534 68.9717 428.765 65.2298 431.379 59.5186C 433.027 55.9199 434.28 52.0885 435.139 48.0244C 435.999 43.9603 436.428 40.0304 436.428 36.2349C 436.428 32.4214 435.721 29.0645 434.307 26.1641C 433.286 24.123 431.961 22.8698 430.332 22.4043C 429.508 22.1895 428.721 22.0104 427.969 21.8672C 427.235 21.724 426.608 21.5628 426.089 21.3838C 425.57 21.2048 425.31 20.9362 425.31 20.5781C 425.31 19.8978 425.767 19.495 426.68 19.3696C 433.859 19.3696 437.887 24.0693 438.765 33.4688C 438.926 35.0622 439.006 36.7809 439.006 38.625C 439.006 42.5638 438.469 46.6369 437.395 50.8442C 436.339 55.0337 434.826 58.9098 432.856 62.4727C 430.905 66.0355 428.586 68.8822 425.901 71.0127C 423.233 73.1432 420.342 74.2085 417.227 74.2085ZM 454.851 12.4946C 455.317 12.4946 455.63 12.8079 455.791 13.4346C 455.737 14.9027 455.505 16.8542 455.093 19.2891C 454.681 21.724 454.26 24.8123 453.831 28.5542C 453.401 32.2782 452.577 37.3628 451.36 43.8081C 450.142 50.2534 448.773 56.6808 447.251 63.0903C 446.911 63.8244 446.401 64.1914 445.72 64.1914C 445.165 64.1914 444.852 63.8244 444.78 63.0903C 448.11 48.9106 450.438 36.1185 451.763 24.7139C 451.995 22.8698 452.282 21.0526 452.622 19.2622C 452.962 17.4718 453.177 15.6546 453.267 13.8105C 453.374 13.4525 453.58 13.1481 453.884 12.8975C 454.189 12.6289 454.511 12.4946 454.851 12.4946ZM 443.921 74.2622C 443.187 73.9937 442.82 73.4655 442.82 72.6777C 442.82 71.8721 443.142 71.2007 443.787 70.6636C 444.449 70.1265 445.085 69.8579 445.693 69.8579C 446.32 69.8579 446.794 70.0638 447.117 70.4756C 447.439 70.8874 447.6 71.4155 447.6 72.0601C 447.6 72.6867 447.34 73.4476 446.821 74.3428C 446.32 75.238 445.658 75.6855 444.834 75.6855C 444.53 75.6855 444.288 75.5871 444.109 75.3901C 443.93 75.2111 443.84 75.0052 443.84 74.7725C 443.84 74.5576 443.867 74.3875 443.921 74.2622Z"/>
</defs>
</svg>
